# xmcd
# 
# Track frame offsets:
#     150
#     27514
#     43025
#     77487
#     89975
#     124273
#     136449
#     168783
#     173421
#     196042
#     202685
#     230945
#     240316
#     248569
#     274872
#     289257
#     297861
# 
# Disc length: 4571
# 
# Revision: 0
# Processed by: cddbd v1.5.2PL0 Copyright (c) Steve Scherf et al.
# Submitted via: BonkEnc v1.0.6
# 
DISCID=ec11d911
DTITLE=Gustaf Gründgens - Faust - Der Tragödie erster Teil - Cd2v2[CD2]
DYEAR=2004
DGENRE=Speech
TTITLE0=Hexenküche
TTITLE1=Straße
TTITLE2=Abend, ein kleines reinliches Zimmer
TTITLE3=Spaziergang
TTITLE4=Der Nachbarin Haus
TTITLE5=Straße
TTITLE6=Garten
TTITLE7=Ein Gartenhäuschen
TTITLE8=Wald und Höhle
TTITLE9=Gretchens Stube
TTITLE10=Marthens Garten
TTITLE11=Am Brunnen
TTITLE12=Zwinger
TTITLE13=Nacht, Straße vor Gretchens Türe
TTITLE14=Dom
TTITLE15=Trüber Tag, Feld
TTITLE16=Kerker
EXTD=In der Gründgens-Inszenierung des Düsseldorfer Shauspielhauses\nFaust: Paul Hartmann, Mephisto: Gustav Gründgens, Margarethe: Käthe Gold, Marthe Schwerdtlein: Elisabeth Flickenschildt u.v.a\nMusik: Mark Lothar\nAufnahme: 1954 ID3G: 12
EXTT0=
EXTT1=
EXTT2=
EXTT3=
EXTT4=
EXTT5=
EXTT6=
EXTT7=
EXTT8=
EXTT9=
EXTT10=
EXTT11=
EXTT12=
EXTT13=
EXTT14=
EXTT15=
EXTT16=
PLAYORDER=
